<svg width="31" height="31" viewBox="0 0 31 31" fill="none" xmlns="http://www.w3.org/2000/svg">
<path d="M23.9765 27.9591L21.7096 27.3779L20.7021 29.4801C20.3437 30.2163 19.2974 30.2163 18.9487 29.4704L16.9143 25.111C19.2684 24.8591 21.4384 23.9776 23.2499 22.6504L25.0906 26.6029C25.4393 27.3488 24.7709 28.1529 23.9765 27.9591Z" fill="white"/>
<path d="M14.0857 25.111L12.0513 29.4704C11.7026 30.2163 10.6563 30.2163 10.2979 29.4801L9.2904 27.3779L7.02353 27.9591C6.22915 28.1529 5.56071 27.3488 5.90946 26.6029L7.75009 22.6504C9.56165 23.9776 11.7317 24.8591 14.0857 25.111Z" fill="white"/>
<path d="M15.5 0.96875C9.34747 0.96875 4.35938 5.95684 4.35938 12.1094C4.35938 18.2619 9.34747 23.25 15.5 23.25C21.6525 23.25 26.6406 18.2619 26.6406 12.1094C26.6406 5.95684 21.6525 0.96875 15.5 0.96875ZM20.5268 11.8488L18.7356 13.5945L19.158 16.0599C19.2975 16.8727 18.444 17.4937 17.7136 17.1091L15.5 15.9456L13.2864 17.1091C12.556 17.4927 11.7025 16.8727 11.842 16.0599L12.2644 13.5945L10.4732 11.8488C9.88222 11.2724 10.2087 10.2697 11.0253 10.1506L13.5005 9.79116L14.6078 7.5485C14.973 6.80837 16.028 6.80837 16.3932 7.5485L17.5005 9.79116L19.9756 10.1506C20.7923 10.2687 21.1178 11.2724 20.5278 11.8488H20.5268Z" fill="white"/>
</svg>
