<svg width="40" height="40" viewBox="0 0 40 40" fill="none" xmlns="http://www.w3.org/2000/svg">
<path d="M4 6.66681V30.6668H22.6668V28.6132C21.034 27.1472 20 25.0288 20 22.6668C20 18.2556 23.5888 14.6668 28 14.6668C30.362 14.6668 32.4804 15.7008 33.9464 17.3336H36V6.66681H4ZM12 24H8V21.3336H12V24ZM17.3332 18.6668H8V16H17.3332V18.6668ZM20 13.3336H8V10.6668H20V13.3336Z" fill="url(#paint0_linear_538_3893)"/>
<path d="M28.0002 17.3336C25.0562 17.3336 22.667 19.7216 22.667 22.6668C22.667 24.6356 23.7462 26.336 25.3334 27.2604V33.3332L28.0002 32L30.667 33.3332V27.2604C32.2542 26.3356 33.3334 24.6352 33.3334 22.6668C33.3334 19.7216 30.9442 17.3336 28.0002 17.3336ZM28.0002 25.3336C26.5286 25.3336 25.3334 24.1408 25.3334 22.6668C25.3334 21.1928 26.5286 20 28.0002 20C29.4718 20 30.667 21.1928 30.667 22.6668C30.667 24.1408 29.4718 25.3336 28.0002 25.3336Z" fill="url(#paint1_linear_538_3893)"/>
<defs>
<linearGradient id="paint0_linear_538_3893" x1="4" y1="11.9055" x2="37.48" y2="17.2798" gradientUnits="userSpaceOnUse">
<stop stop-color="#F1592A"/>
<stop offset="1" stop-color="#FBC54E"/>
</linearGradient>
<linearGradient id="paint1_linear_538_3893" x1="22.667" y1="20.8259" x2="34.041" y2="21.7388" gradientUnits="userSpaceOnUse">
<stop stop-color="#F1592A"/>
<stop offset="1" stop-color="#FBC54E"/>
</linearGradient>
</defs>
</svg>
