<svg width="40" height="40" viewBox="0 0 40 40" fill="none" xmlns="http://www.w3.org/2000/svg">
<path d="M4 6.66681V30.6668H22.6668V28.6132C21.034 27.1472 20 25.0288 20 22.6668C20 18.2556 23.5888 14.6668 28 14.6668C30.362 14.6668 32.4804 15.7008 33.9464 17.3336H36V6.66681H4ZM12 24H8V21.3336H12V24ZM17.3332 18.6668H8V16H17.3332V18.6668ZM20 13.3336H8V10.6668H20V13.3336Z" fill="url(#paint0_linear_481_4328)"/>
<path d="M27.9992 17.3336C25.0552 17.3336 22.666 19.7216 22.666 22.6668C22.666 24.6356 23.7452 26.336 25.3324 27.2604V33.3332L27.9992 32L30.666 33.3332V27.2604C32.2532 26.3356 33.3324 24.6352 33.3324 22.6668C33.3324 19.7216 30.9432 17.3336 27.9992 17.3336ZM27.9992 25.3336C26.5276 25.3336 25.3324 24.1408 25.3324 22.6668C25.3324 21.1928 26.5276 20 27.9992 20C29.4708 20 30.666 21.1928 30.666 22.6668C30.666 24.1408 29.4708 25.3336 27.9992 25.3336Z" fill="url(#paint1_linear_481_4328)"/>
<defs>
<linearGradient id="paint0_linear_481_4328" x1="4" y1="11.9055" x2="37.48" y2="17.2798" gradientUnits="userSpaceOnUse">
<stop stop-color="#F1592A"/>
<stop offset="1" stop-color="#FBC54E"/>
</linearGradient>
<linearGradient id="paint1_linear_481_4328" x1="22.666" y1="20.8259" x2="34.04" y2="21.7388" gradientUnits="userSpaceOnUse">
<stop stop-color="#F1592A"/>
<stop offset="1" stop-color="#FBC54E"/>
</linearGradient>
</defs>
</svg>
