<svg width="33" height="34" viewBox="0 0 33 34" fill="none" xmlns="http://www.w3.org/2000/svg">
<path d="M24.7506 2.5625V4.625H27.4174L16.5006 15.5418L12.3756 11.4168L2.36523 21.4272L3.82342 22.8853L12.3756 14.3332L16.5006 18.4582L28.8756 6.08319V8.75H30.9381V2.5625H24.7506Z" fill="url(#paint0_linear_642_3960)"/>
<path d="M8.67694 24.2188H3.69806L2.0625 25.8543V31.4375H10.3125V25.8543L8.67694 24.2188Z" fill="url(#paint1_linear_642_3960)"/>
<path d="M14.0147 20.0938L12.375 21.7334V31.4375H20.625V21.7334L18.9853 20.0938H14.0147Z" fill="url(#paint2_linear_642_3960)"/>
<path d="M24.3272 13.9062L22.6875 15.5459V31.4375H30.9375V15.5459L29.2978 13.9062H24.3272Z" fill="url(#paint3_linear_642_3960)"/>
<defs>
<linearGradient id="paint0_linear_642_3960" x1="2.36523" y1="6.99852" x2="32.1758" y2="12.0444" gradientUnits="userSpaceOnUse">
<stop stop-color="#F1592A"/>
<stop offset="1" stop-color="#FBC54E"/>
</linearGradient>
<linearGradient id="paint1_linear_642_3960" x1="2.0625" y1="25.7944" x2="10.752" y2="26.99" gradientUnits="userSpaceOnUse">
<stop stop-color="#F1592A"/>
<stop offset="1" stop-color="#FBC54E"/>
</linearGradient>
<linearGradient id="paint2_linear_642_3960" x1="12.375" y1="22.5698" x2="21.1616" y2="23.3392" gradientUnits="userSpaceOnUse">
<stop stop-color="#F1592A"/>
<stop offset="1" stop-color="#FBC54E"/>
</linearGradient>
<linearGradient id="paint3_linear_642_3960" x1="22.6875" y1="17.7329" x2="31.5131" y2="18.2329" gradientUnits="userSpaceOnUse">
<stop stop-color="#F1592A"/>
<stop offset="1" stop-color="#FBC54E"/>
</linearGradient>
</defs>
</svg>
