<svg width="19" height="19" viewBox="0 0 19 19" fill="none" xmlns="http://www.w3.org/2000/svg">
<path d="M9.37502 0.402832C7.59498 0.402832 5.85492 0.930674 4.37488 1.91961C2.89483 2.90854 1.74128 4.31415 1.06009 5.95869C0.3789 7.60323 0.200669 9.41283 0.547937 11.1587C0.895204 12.9045 1.75237 14.5081 3.01105 15.7668C4.26972 17.0255 5.87337 17.8827 7.6192 18.2299C9.36503 18.5772 11.1746 18.399 12.8192 17.7178C14.4637 17.0366 15.8693 15.883 16.8582 14.403C17.8472 12.9229 18.375 11.1829 18.375 9.40284C18.375 7.01589 17.4268 4.7267 15.739 3.03887C14.0512 1.35104 11.762 0.402832 9.37502 0.402832Z" fill="url(#paint0_linear_522_6981)"/>
<path d="M14.5099 7.91255L9.09773 13.5942C8.95034 13.749 8.77323 13.8724 8.57701 13.9571C8.38079 14.0418 8.1695 14.086 7.95578 14.0871H7.9489C7.73643 14.0871 7.52612 14.0444 7.33042 13.9617C7.13473 13.8789 6.95763 13.7578 6.80961 13.6053L3.9386 10.6475C3.78247 10.5004 3.65775 10.3232 3.57197 10.1266C3.48619 9.92998 3.44113 9.71803 3.4395 9.50353C3.43787 9.28903 3.47971 9.07642 3.5625 8.87853C3.64529 8.68063 3.7673 8.50156 3.92119 8.35212C4.07507 8.20267 4.25763 8.08595 4.45786 8.00898C4.65809 7.93202 4.87183 7.89642 5.08619 7.90432C5.30056 7.91222 5.5111 7.96347 5.70512 8.05496C5.89914 8.14645 6.07261 8.2763 6.21508 8.43667L7.93567 10.2097L12.2075 5.72343C12.3512 5.57226 12.5233 5.45087 12.714 5.3662C12.9046 5.28154 13.1101 5.23526 13.3186 5.23C13.5272 5.22474 13.7347 5.2606 13.9294 5.33555C14.1241 5.41049 14.3021 5.52305 14.4533 5.66679C14.6044 5.81053 14.7258 5.98264 14.8105 6.17329C14.8952 6.36394 14.9414 6.5694 14.9467 6.77794C14.952 6.98648 14.9161 7.19401 14.8411 7.38869C14.7662 7.58337 14.6536 7.76138 14.5099 7.91255Z" fill="url(#paint1_linear_522_6981)"/>
<defs>
<linearGradient id="paint0_linear_522_6981" x1="15.7401" y1="15.768" x2="3.00989" y2="3.03772" gradientUnits="userSpaceOnUse">
<stop stop-color="#13B601"/>
<stop offset="0.52" stop-color="#13B601"/>
<stop offset="1" stop-color="#CBF4B4"/>
</linearGradient>
<linearGradient id="paint1_linear_522_6981" x1="11.8438" y1="10.8492" x2="6.68519" y2="5.69008" gradientUnits="userSpaceOnUse">
<stop stop-color="#CBF4B4"/>
<stop offset="0.57" stop-color="white"/>
<stop offset="1" stop-color="white"/>
</linearGradient>
</defs>
</svg>
