<svg width="31" height="31" viewBox="0 0 31 31" fill="none" xmlns="http://www.w3.org/2000/svg">
<path d="M10.8693 20.1112C9.3645 21.2931 8.39575 23.1273 8.39575 25.1875V27.125H4.52075C3.44867 27.125 2.58325 26.2596 2.58325 25.1875V23.8958C2.58325 21.3965 4.60471 19.375 7.10409 19.375H8.39575C9.31284 19.375 10.1589 19.6462 10.8693 20.1112Z" fill="white"/>
<path d="M23.25 19.375C24.8551 19.375 26.1562 18.0738 26.1562 16.4688C26.1562 14.8637 24.8551 13.5625 23.25 13.5625C21.6449 13.5625 20.3438 14.8637 20.3438 16.4688C20.3438 18.0738 21.6449 19.375 23.25 19.375Z" fill="white"/>
<path d="M7.75 19.375C9.35508 19.375 10.6562 18.0738 10.6562 16.4688C10.6562 14.8637 9.35508 13.5625 7.75 13.5625C6.14492 13.5625 4.84375 14.8637 4.84375 16.4688C4.84375 18.0738 6.14492 19.375 7.75 19.375Z" fill="white"/>
<path d="M28.4167 23.8958V25.1875C28.4167 26.2596 27.5512 27.125 26.4792 27.125H22.6042V25.1875C22.6042 23.1273 21.6354 21.2931 20.1306 20.1112C20.841 19.6462 21.6871 19.375 22.6042 19.375H23.8958C26.3952 19.375 28.4167 21.3965 28.4167 23.8958Z" fill="white"/>
<path d="M15.5001 20.0208C17.4618 20.0208 19.0522 18.4305 19.0522 16.4687C19.0522 14.5069 17.4618 12.9166 15.5001 12.9166C13.5383 12.9166 11.948 14.5069 11.948 16.4687C11.948 18.4305 13.5383 20.0208 15.5001 20.0208Z" fill="white"/>
<path d="M16.1458 20.0209H14.8542C12.0054 20.0209 9.6875 22.3388 9.6875 25.1875V27.125C9.6875 28.1933 10.5568 29.0625 11.625 29.0625H19.375C20.4432 29.0625 21.3125 28.1933 21.3125 27.125V25.1875C21.3125 22.3388 18.9946 20.0209 16.1458 20.0209Z" fill="white"/>
<path d="M24.8647 10.7751L23.3063 11.3292C22.8639 11.4861 22.4021 11.151 22.415 10.6814L22.4602 9.02811L21.4515 7.71707C21.1653 7.34507 21.3417 6.80192 21.7918 6.66888L23.3786 6.2013L24.3138 4.83665C24.5792 4.4498 25.1501 4.4498 25.4156 4.83665L26.3507 6.2013L27.9376 6.66888C28.3877 6.80127 28.564 7.34507 28.2779 7.71707L27.2691 9.02811L27.3143 10.6814C27.3272 11.1503 26.8648 11.4861 26.4231 11.3292L24.8647 10.7751Z" fill="white"/>
<path d="M6.13543 10.7751L4.57704 11.3292C4.13464 11.4861 3.67287 11.151 3.68579 10.6814L3.731 9.02811L2.7222 7.71707C2.4361 7.34507 2.61241 6.80192 3.06256 6.66888L4.64937 6.2013L5.58454 4.83665C5.84998 4.4498 6.42089 4.4498 6.68633 4.83665L7.6215 6.2013L9.20831 6.66888C9.65845 6.80127 9.83477 7.34507 9.54866 7.71707L8.53987 9.02811L8.58508 10.6814C8.598 11.1503 8.13558 11.4861 7.69383 11.3292L6.13543 10.7751Z" fill="white"/>
<path d="M15.5 9.32191L13.6522 9.97872C13.1278 10.1654 12.5801 9.76689 12.5956 9.21083L12.6493 7.25072L11.4532 5.6962C11.1141 5.2551 11.3234 4.6112 11.8568 4.45362L13.7381 3.89885L14.847 2.28104C15.1615 1.82185 15.839 1.82185 16.1535 2.28104L17.2624 3.89885L19.1438 4.45362C19.6772 4.6112 19.8865 5.2551 19.5474 5.6962L18.3513 7.25072L18.4049 9.21083C18.4204 9.76689 17.8721 10.1654 17.3483 9.97872L15.5 9.32191Z" fill="white"/>
</svg>
