<svg width="37" height="37" viewBox="0 0 37 37" fill="none" xmlns="http://www.w3.org/2000/svg">
<path d="M27.0613 20.965L31.2305 20.3909L34.6875 19.6464V9.76134C34.6875 9.47351 34.4542 9.24023 34.1664 9.24023H27.75L20.8125 15.0312L27.0613 20.965Z" fill="#FD4755"/>
<path d="M25.4376 9.24011L24.6931 14.4432L25.4376 19.6464L26.6149 20.3908L27.7501 19.6464V9.24011H25.4376Z" fill="#FB2B3A"/>
<path d="M27.75 30.0723H34.1663C34.4541 30.0723 34.6874 29.839 34.6874 29.5512V19.6465H27.7499L21.5569 27.7598C21.5569 29.037 27.75 30.0723 27.75 30.0723Z" fill="#E5ECF5"/>
<path d="M27.75 19.6465V30.0721H24.2517L23.1245 29.3276C22.5237 29.3276 21.5567 28.4365 21.5567 27.7597L20.8123 25.4375V19.6465H27.75Z" fill="#CAD8EB"/>
<path d="M25.4377 27.7501C25.4377 28.7038 24.9701 29.5509 24.2517 30.0721H23.1246C22.5238 30.0721 21.9774 29.8428 21.5664 29.4676H21.5657C21.1026 29.0447 20.8123 28.4365 20.8123 27.7597V19.6465C20.8123 19.6465 24.2808 23.488 25.0326 24.7721C25.2374 25.1221 25.4377 27.4419 25.4377 27.7501Z" fill="#B9C9DB"/>
<path d="M9.2499 16.61L25.4374 17.3241V6.91784C25.4374 5.65153 24.4109 4.625 23.1446 4.625H10.3271L8.83813 9.82812L9.2499 16.61Z" fill="#FD4755"/>
<path d="M10.3271 25.4375H23.1446C24.4109 25.4375 25.4374 26.464 25.4374 27.7303V17.3241C25.4374 16.0578 24.4109 15.0312 23.1446 15.0312H10.3271L8.83813 20.2344L10.3271 25.4375Z" fill="#E5ECF5"/>
<path d="M8.09385 4.625L7.34937 9.82812L8.09385 15.0312L9.29346 15.7757L10.3273 15.0312V4.625H8.09385Z" fill="#FB2B3A"/>
<path d="M8.09385 15.0312L7.34937 20.2344L8.09385 25.4375H10.3273V15.0312H8.09385Z" fill="#CAD8EB"/>
<path d="M8.09375 32.375L6.85844 33.864L5.78125 32.375V2.3125H8.09375V32.375Z" fill="#FFB272"/>
<path d="M6.9375 3.46875C7.89537 3.46875 8.67188 2.69224 8.67188 1.73438C8.67188 0.776506 7.89537 0 6.9375 0C5.97963 0 5.20312 0.776506 5.20312 1.73438C5.20312 2.69224 5.97963 3.46875 6.9375 3.46875Z" fill="#D38A54"/>
<path d="M9.2499 34.6875L5.36938 35.432V33.1195L6.85835 32.375H8.7288C9.01663 32.375 9.2499 32.6083 9.2499 32.8961V34.6875Z" fill="#FFB272"/>
<path d="M4.625 32.8961V34.6875L5.78125 35.432L6.85844 34.6875V32.375H5.14611C4.85835 32.375 4.625 32.6083 4.625 32.8961Z" fill="#D38A54"/>
<path d="M11.0413 37H4.6249L3.05688 35.8438L4.6249 34.6875H11.0413C11.3291 34.6875 11.5624 34.9208 11.5624 35.2086V36.4788C11.5624 36.7667 11.3291 37 11.0413 37Z" fill="#AF6A3A"/>
<path d="M2.3125 35.2086V36.4788C2.3125 36.7666 2.54585 36.9999 2.83361 36.9999H4.625V34.6874H2.83361C2.54585 34.6875 2.3125 34.9208 2.3125 35.2086Z" fill="#8C5835"/>
</svg>
