<svg width="90" height="90" viewBox="0 0 90 90" fill="none" xmlns="http://www.w3.org/2000/svg">
<path d="M45 63.75C55.3553 63.75 63.75 55.3553 63.75 45C63.75 34.6447 55.3553 26.25 45 26.25C34.6447 26.25 26.25 34.6447 26.25 45C26.25 55.3553 34.6447 63.75 45 63.75Z" fill="url(#paint0_linear_402_3546)"/>
<path fill-rule="evenodd" clip-rule="evenodd" d="M45 21.5625C44.2541 21.5625 43.5387 21.2662 43.0113 20.7387C42.4838 20.2113 42.1875 19.4959 42.1875 18.75V16.0739C37.4328 16.5362 32.8498 18.1654 28.8538 20.8354C24.0745 24.0289 20.3494 28.5678 18.1498 33.8783C17.0453 36.5448 16.3502 39.3457 16.0739 42.1875H18.75C19.4959 42.1875 20.2113 42.4838 20.7387 43.0113C21.2662 43.5387 21.5625 44.2541 21.5625 45C21.5625 45.7459 21.2662 46.4613 20.7387 46.9887C20.2113 47.5162 19.4959 47.8125 18.75 47.8125H16.0739C16.1669 48.7684 16.3074 49.722 16.4959 50.6698C17.6173 56.3074 20.3853 61.4858 24.4497 65.5503C28.5142 69.6148 33.6926 72.3827 39.3302 73.5041C40.278 73.6926 41.2316 73.8332 42.1875 73.9261V71.25C42.1875 70.5041 42.4838 69.7887 43.0113 69.2613C43.5387 68.7338 44.2541 68.4375 45 68.4375C45.7459 68.4375 46.4613 68.7338 46.9887 69.2613C47.5162 69.7887 47.8125 70.5041 47.8125 71.25V73.9261C50.6543 73.6498 53.4552 72.9548 56.1217 71.8503C61.4322 69.6506 65.9712 65.9256 69.1646 61.1463C71.8347 57.1502 73.4639 52.5672 73.9261 47.8125H71.25C70.5041 47.8125 69.7887 47.5162 69.2613 46.9887C68.7338 46.4613 68.4375 45.7459 68.4375 45C68.4375 44.2541 68.7338 43.5387 69.2613 43.0113C69.7887 42.4838 70.5041 42.1875 71.25 42.1875H73.9231C73.2675 35.5153 70.3218 29.2409 65.5404 24.4596C60.7591 19.6782 54.4847 16.7326 47.8125 16.077V18.75C47.8125 19.4959 47.5162 20.2113 46.9887 20.7387C46.4613 21.2662 45.7459 21.5625 45 21.5625ZM10.4267 47.8125C10.7178 51.3908 11.5642 54.9216 12.9529 58.2743C15.5784 64.6127 20.0243 70.0301 25.7287 73.8416C30.6505 77.1303 36.3183 79.0959 42.1875 79.5733V82.5C42.1875 83.2459 42.4838 83.9613 43.0113 84.4887C43.5387 85.0162 44.2541 85.3125 45 85.3125C45.7459 85.3125 46.4613 85.0162 46.9887 84.4887C47.5162 83.9613 47.8125 83.2459 47.8125 82.5V79.5705C55.979 78.8983 63.68 75.3536 69.5168 69.5168C75.3536 63.68 78.8983 55.979 79.5705 47.8125H82.5C83.2459 47.8125 83.9613 47.5162 84.4887 46.9887C85.0162 46.4613 85.3125 45.7459 85.3125 45C85.3125 44.2541 85.0162 43.5387 84.4887 43.0113C83.9613 42.4838 83.2459 42.1875 82.5 42.1875H79.5733C79.0959 36.3183 77.1303 30.6505 73.8416 25.7287C70.0301 20.0243 64.6127 15.5784 58.2743 12.9529C54.9216 11.5642 51.3908 10.7178 47.8125 10.4267V7.5C47.8125 6.75408 47.5162 6.03871 46.9887 5.51126C46.4613 4.98382 45.7459 4.6875 45 4.6875C44.2541 4.6875 43.5387 4.98382 43.0113 5.51126C42.4838 6.03871 42.1875 6.75408 42.1875 7.5V10.4267C40.8643 10.5343 39.5439 10.7182 38.2328 10.979C31.5041 12.3175 25.3234 15.6211 20.4722 20.4722C15.6211 25.3234 12.3175 31.5041 10.979 38.2328C10.7182 39.5439 10.5343 40.8643 10.4267 42.1875H7.5C6.75408 42.1875 6.03871 42.4838 5.51126 43.0113C4.98382 43.5387 4.6875 44.2541 4.6875 45C4.6875 45.7459 4.98382 46.4613 5.51126 46.9887C6.03871 47.5162 6.75408 47.8125 7.5 47.8125H10.4267Z" fill="url(#paint1_linear_402_3546)"/>
<defs>
<linearGradient id="paint0_linear_402_3546" x1="26.25" y1="34.4354" x2="65.9203" y2="39.2114" gradientUnits="userSpaceOnUse">
<stop stop-color="#F1592A"/>
<stop offset="1" stop-color="#FBC54E"/>
</linearGradient>
<linearGradient id="paint1_linear_402_3546" x1="4.6875" y1="22.2861" x2="89.9787" y2="32.5545" gradientUnits="userSpaceOnUse">
<stop stop-color="#F1592A"/>
<stop offset="1" stop-color="#FBC54E"/>
</linearGradient>
</defs>
</svg>
