<svg width="89" height="90" viewBox="0 0 89 90" fill="none" xmlns="http://www.w3.org/2000/svg">
<g clip-path="url(#clip0_402_3511)">
<path d="M2.60733 30.8518H10.9856C14.4383 30.7251 14.4416 25.7652 10.9856 25.6371H2.60733C-0.845323 25.764 -0.848626 30.7237 2.60733 30.8518Z" fill="url(#paint0_linear_402_3511)"/>
<path d="M86.3902 59.1504H78.0119C74.5592 59.2771 74.5559 64.237 78.0119 64.3651H86.3902C89.8428 64.2384 89.8461 59.2785 86.3902 59.1504Z" fill="url(#paint1_linear_402_3511)"/>
<path d="M14.0502 18.2401C16.5809 20.5917 20.0909 17.0871 17.7375 14.5528L11.8126 8.62782C10.7945 7.60974 9.14352 7.60974 8.12527 8.62782C7.10701 9.6459 7.10701 11.2969 8.12527 12.3151L14.0502 18.2401Z" fill="url(#paint2_linear_402_3511)"/>
<path d="M74.9474 71.7623C72.4165 69.4107 68.9067 72.9155 71.2601 75.4496L77.185 81.3746C78.2029 82.3927 79.8537 82.3932 80.8723 81.3746C81.8906 80.3565 81.8906 78.7055 80.8723 77.6873L74.9474 71.7623Z" fill="url(#paint3_linear_402_3511)"/>
<path d="M27.7421 14.0954C29.1821 14.0954 30.3495 12.928 30.3495 11.4881V3.10979C30.3495 1.66984 29.1821 0.502441 27.7421 0.502441C26.3022 0.502441 25.1348 1.66984 25.1348 3.10979V11.4881C25.1348 12.928 26.3022 14.0954 27.7421 14.0954Z" fill="url(#paint4_linear_402_3511)"/>
<path d="M61.2553 75.9067C59.8153 75.9067 58.6479 77.0741 58.6479 78.5141V86.8924C58.6479 88.3323 59.8153 89.4997 61.2553 89.4997C62.6953 89.4997 63.8627 88.3323 63.8627 86.8924V78.5141C63.8627 77.0741 62.6953 75.9067 61.2553 75.9067Z" fill="url(#paint5_linear_402_3511)"/>
<path d="M88.9975 26.9409C88.9975 12.3627 77.1372 0.502364 62.5588 0.502364C45.7011 0.272222 32.6966 16.884 36.8647 33.1746C45.9448 36.3513 53.1485 43.5551 56.3253 52.6351C72.6174 56.8027 89.2266 43.7988 88.9975 26.9409ZM67.1331 18.9144C67.2607 15.4602 72.2202 15.4599 72.3478 18.9144V21.5548C72.2202 25.009 67.2607 25.0094 67.1331 21.5548V18.9144ZM52.7699 18.9144C52.8975 15.4602 57.8571 15.4599 57.9846 18.9144V21.5548C57.8571 25.009 52.8975 25.0094 52.7699 21.5548V18.9144ZM53.0985 36.4021C50.7466 33.8705 54.2502 30.3619 56.7851 32.7141C59.9688 35.897 65.1491 35.8966 68.3329 32.7141C69.3513 31.696 71.0019 31.6964 72.0202 32.7148C73.0381 33.733 73.0379 35.3839 72.0195 36.4021C66.803 41.6172 58.3147 41.617 53.0985 36.4021Z" fill="url(#paint6_linear_402_3511)"/>
<path d="M26.4385 36.6227C11.8601 36.6227 0 48.4832 0 63.0614C1.32905 98.0875 51.5532 98.0778 52.8771 63.061C52.8771 48.4832 41.0168 36.6227 26.4385 36.6227ZM31.0127 55.0349C31.1403 51.5807 36.0998 51.5804 36.2274 55.0349V57.6753C36.0998 61.1295 31.1403 61.1299 31.0127 57.6753V55.0349ZM16.6495 55.0349C16.7771 51.5807 21.7366 51.5804 21.8642 55.0349V57.6753C21.7366 61.1295 16.7771 61.1299 16.6495 57.6753V55.0349ZM35.899 72.5226C30.6826 77.7376 22.1943 77.7375 16.9778 72.5226C15.9594 71.5045 15.9592 69.8537 16.9772 68.8353C17.9952 67.8168 19.6462 67.8168 20.6645 68.8346C23.8482 72.0176 29.0285 72.0173 32.2124 68.8346C34.741 66.4834 38.2538 69.9876 35.899 72.5226Z" fill="url(#paint7_linear_402_3511)"/>
</g>
<defs>
<linearGradient id="paint0_linear_402_3511" x1="0.0166015" y1="26.7753" x2="13.2701" y2="30.9244" gradientUnits="userSpaceOnUse">
<stop stop-color="#F1592A"/>
<stop offset="1" stop-color="#FBC54E"/>
</linearGradient>
<linearGradient id="paint1_linear_402_3511" x1="75.4211" y1="60.2886" x2="88.6747" y2="64.4377" gradientUnits="userSpaceOnUse">
<stop stop-color="#F1592A"/>
<stop offset="1" stop-color="#FBC54E"/>
</linearGradient>
<linearGradient id="paint2_linear_402_3511" x1="7.36157" y1="10.2985" x2="19.1596" y2="11.719" gradientUnits="userSpaceOnUse">
<stop stop-color="#F1592A"/>
<stop offset="1" stop-color="#FBC54E"/>
</linearGradient>
<linearGradient id="paint3_linear_402_3511" x1="70.4834" y1="73.4203" x2="82.2815" y2="74.8407" gradientUnits="userSpaceOnUse">
<stop stop-color="#F1592A"/>
<stop offset="1" stop-color="#FBC54E"/>
</linearGradient>
<linearGradient id="paint4_linear_402_3511" x1="25.1348" y1="3.46948" x2="30.7193" y2="3.72741" gradientUnits="userSpaceOnUse">
<stop stop-color="#F1592A"/>
<stop offset="1" stop-color="#FBC54E"/>
</linearGradient>
<linearGradient id="paint5_linear_402_3511" x1="58.6479" y1="78.8738" x2="64.2325" y2="79.1317" gradientUnits="userSpaceOnUse">
<stop stop-color="#F1592A"/>
<stop offset="1" stop-color="#FBC54E"/>
</linearGradient>
<linearGradient id="paint6_linear_402_3511" x1="36.0803" y1="12.0511" x2="92.0626" y2="18.791" gradientUnits="userSpaceOnUse">
<stop stop-color="#F1592A"/>
<stop offset="1" stop-color="#FBC54E"/>
</linearGradient>
<linearGradient id="paint7_linear_402_3511" x1="-1.51475e-07" y1="48.1269" x2="55.9321" y2="54.8827" gradientUnits="userSpaceOnUse">
<stop stop-color="#F1592A"/>
<stop offset="1" stop-color="#FBC54E"/>
</linearGradient>
<clipPath id="clip0_402_3511">
<rect width="89" height="89" fill="white" transform="translate(0 0.5)"/>
</clipPath>
</defs>
</svg>
