<svg width="32" height="31" viewBox="0 0 32 31" fill="none" xmlns="http://www.w3.org/2000/svg">
<path d="M18.5592 26.6361H12.9854C12.6599 26.6361 12.396 26.9 12.396 27.2255C12.396 27.551 12.6599 27.8149 12.9854 27.8149H18.5592C18.8847 27.8149 19.1486 27.551 19.1486 27.2255C19.1486 26.9 18.8847 26.6361 18.5592 26.6361Z" fill="white"/>
<path d="M17.5027 28.8212H14.0425C13.717 28.8212 13.4531 29.0851 13.4531 29.4106C13.4531 29.7361 13.717 30 14.0425 30H17.5027C17.8282 30 18.0921 29.7361 18.0921 29.4106C18.0921 29.0851 17.8282 28.8212 17.5027 28.8212Z" fill="white"/>
<path d="M15.7753 5.74194C10.7948 5.74194 6.74561 9.79117 6.74561 14.7716C6.74561 18.0546 8.50793 21.0429 11.3666 22.6403V25.216C11.3666 25.5401 11.6318 25.8054 11.956 25.8054H15.1831V16.9301L12.1511 14.0404C11.9154 13.8156 11.9065 13.4427 12.131 13.207C12.3561 12.9715 12.729 12.9632 12.9645 13.1868L15.7725 15.8631L18.5805 13.1868C18.8162 12.9629 19.1889 12.9713 19.414 13.207C19.6385 13.4427 19.6295 13.8156 19.3938 14.0404L16.3619 16.9299V25.8054H19.5888C19.913 25.8054 20.1782 25.5401 20.1782 25.216V22.6403C23.0368 21.0429 24.7992 18.0546 24.7992 14.7716C24.7992 9.79117 20.7499 5.74194 15.7753 5.74194Z" fill="white"/>
<path d="M15.7725 4.53395C16.098 4.53395 16.3619 4.27004 16.3619 3.94454V1.11895C16.3619 0.793451 16.098 0.529541 15.7725 0.529541C15.447 0.529541 15.1831 0.793451 15.1831 1.11895V3.94454C15.1831 4.27004 15.447 4.53395 15.7725 4.53395Z" fill="white"/>
<path d="M7.70181 7.53173C7.81693 7.64685 7.96774 7.70441 8.11854 7.70441C8.26935 7.70441 8.42015 7.64685 8.53527 7.53173C8.76551 7.3015 8.76551 6.92851 8.53527 6.69827L6.53739 4.70039C6.30715 4.47015 5.93417 4.47015 5.70393 4.70039C5.47369 4.93063 5.47369 5.30361 5.70393 5.53385L7.70181 7.53173Z" fill="white"/>
<path d="M4.94791 14.1794H2.12261C1.79711 14.1794 1.5332 14.4434 1.5332 14.7689C1.5332 15.0943 1.79711 15.3583 2.12261 15.3583H4.94791C5.27341 15.3583 5.53732 15.0943 5.53732 14.7689C5.53732 14.4434 5.27341 14.1794 4.94791 14.1794Z" fill="white"/>
<path d="M7.70181 22.0059L5.70393 24.0038C5.47369 24.2341 5.47369 24.607 5.70393 24.8373C5.81905 24.9524 5.96985 25.01 6.12066 25.01C6.27146 25.01 6.42227 24.9524 6.53739 24.8373L8.53527 22.8394C8.76551 22.6092 8.76551 22.2362 8.53527 22.0059C8.30504 21.7757 7.93205 21.7757 7.70181 22.0059Z" fill="white"/>
<path d="M23.4263 7.70441C23.5771 7.70441 23.7279 7.64685 23.8431 7.53173L25.8409 5.53385C26.0712 5.30361 26.0712 4.93063 25.8409 4.70039C25.6107 4.47015 25.2377 4.47015 25.0075 4.70039L23.0096 6.69827C22.7794 6.92851 22.7794 7.3015 23.0096 7.53173C23.1247 7.64685 23.2755 7.70441 23.4263 7.70441Z" fill="white"/>
<path d="M29.4223 14.1794H26.5967C26.2709 14.1794 26.0073 14.4434 26.0073 14.7689C26.0073 15.0943 26.2709 15.3583 26.5967 15.3583H29.4223C29.7481 15.3583 30.0117 15.0943 30.0117 14.7689C30.0117 14.4434 29.7481 14.1794 29.4223 14.1794Z" fill="white"/>
<path d="M23.8431 22.0059C23.6128 21.7757 23.2398 21.7757 23.0096 22.0059C22.7794 22.2362 22.7794 22.6092 23.0096 22.8394L25.0075 24.8373C25.1226 24.9524 25.2734 25.01 25.4242 25.01C25.575 25.01 25.7258 24.9524 25.8409 24.8373C26.0712 24.607 26.0712 24.2341 25.8409 24.0038L23.8431 22.0059Z" fill="white"/>
</svg>
