<svg width="86" height="86" viewBox="0 0 86 86" fill="none" xmlns="http://www.w3.org/2000/svg">
<path fill-rule="evenodd" clip-rule="evenodd" d="M85.8217 63.2841L82.7313 62.1075C82.6745 62.0858 82.6355 62.0419 82.621 61.9835C82.2084 60.3096 81.5371 58.7092 80.6318 57.2372C80.6 57.1857 80.5962 57.1274 80.621 57.0723L81.966 54.0769C81.9969 54.0082 81.9825 53.9317 81.9288 53.8786L78.2982 50.2876C78.2445 50.2345 78.1672 50.2205 78.0979 50.2509L75.0685 51.5815C75.0128 51.6059 74.9539 51.6022 74.9019 51.5709C73.4141 50.6758 71.7968 50.0118 70.1048 49.6037C70.0457 49.5895 70.0013 49.5508 69.9794 49.4946L68.7897 46.437C68.7624 46.3668 68.6975 46.3229 68.6215 46.3229H63.4873C63.4113 46.3229 63.3466 46.367 63.3193 46.437L62.1294 49.4946C62.1075 49.5508 62.0633 49.5895 62.004 49.6037C60.3122 50.0118 58.6947 50.6758 57.2069 51.5709C57.1547 51.6022 57.0958 51.6059 57.0401 51.5815L54.0108 50.2509C53.9412 50.2203 53.8639 50.2345 53.8102 50.2876L50.1796 53.8788C50.1259 53.9319 50.1115 54.0083 50.1424 54.0771L51.4878 57.0732C51.5124 57.1283 51.5086 57.1866 51.477 57.2381C50.5721 58.7098 49.9008 60.3099 49.4882 61.9835C49.4738 62.0419 49.4346 62.0858 49.3779 62.1075L46.2871 63.2843C46.2161 63.3113 46.1715 63.3755 46.1715 63.4506V68.5291C46.1715 68.6042 46.2161 68.6684 46.2871 68.6952L49.3773 69.8718C49.4341 69.8935 49.4733 69.9374 49.4877 69.9959C49.9004 71.6696 50.5717 73.2701 51.4768 74.7419C51.5084 74.7933 51.5122 74.8518 51.4876 74.9069L50.1426 77.9022C50.1119 77.971 50.1261 78.0474 50.1798 78.1006L53.8104 81.6917C53.8641 81.7449 53.9414 81.7591 54.0109 81.7285L57.0403 80.3978C57.096 80.3733 57.1549 80.377 57.207 80.4083C58.6948 81.3034 60.3122 81.9674 62.0042 82.3755C62.0633 82.3897 62.1077 82.4284 62.1296 82.4846L63.3195 85.5421C63.3468 85.6124 63.4116 85.6562 63.4877 85.6562H68.6219C68.6979 85.6562 68.7627 85.6122 68.7901 85.5421L69.9796 82.4853C70.0015 82.4291 70.0459 82.3904 70.105 82.3762C71.7971 81.9681 73.4152 81.3039 74.9034 80.4086C74.9555 80.3774 75.0146 80.3735 75.0701 80.398L78.0984 81.7283C78.1678 81.7589 78.2452 81.7447 78.2989 81.6915L81.9295 78.1004C81.9832 78.0473 81.9976 77.9708 81.9667 77.9021L80.6214 74.9056C80.5966 74.8505 80.6004 74.7922 80.6322 74.7407C81.5371 73.2691 82.2084 71.6693 82.6208 69.9957C82.6353 69.9372 82.6743 69.8933 82.7311 69.8717L85.8223 68.6947C85.8932 68.6677 85.9376 68.6035 85.9376 68.5283V63.4501C85.9373 63.3753 85.8927 63.3111 85.8217 63.2841ZM66.0543 75.3692C60.8168 75.3692 56.5717 71.1702 56.5717 65.9898C56.5717 60.8092 60.8168 56.6102 66.0543 56.6102C71.2918 56.6102 75.537 60.8092 75.537 65.9898C75.537 71.1702 71.292 75.3692 66.0543 75.3692ZM34.7987 21.0448C27.2671 21.0448 21.1614 27.0841 21.1614 34.534C21.1614 41.9837 27.267 48.0231 34.7987 48.0231C42.3305 48.0231 48.4361 41.9839 48.4361 34.534C48.4363 27.0841 42.3305 21.0448 34.7987 21.0448ZM42.7179 32.1388L34.4681 40.299C33.2753 41.4789 31.6797 40.9992 30.6219 39.9529L26.8799 36.2516C25.9441 35.3261 25.9443 33.8117 26.8799 32.8862C27.8155 31.9607 29.3467 31.9606 30.2823 32.8862L32.7199 35.2973L39.3155 28.7734C40.2512 27.848 41.7823 27.848 42.7179 28.7734C43.6537 29.6989 43.6537 31.2134 42.7179 32.1388ZM63.8467 27.8901C63.1161 24.8524 61.8989 21.9509 60.2436 19.2925L62.7508 13.7088L56.0955 7.12609L50.4488 9.60673C47.7616 7.97015 44.8291 6.76618 41.7591 6.04334L39.5411 0.34375H30.1294L27.9111 6.04334C24.8412 6.766 21.9087 7.96998 19.2215 9.60673L13.575 7.12627L6.91968 13.7092L9.4274 19.294C7.77248 21.952 6.55528 24.8528 5.82467 27.8899L0.0629883 30.0837V39.3931L5.82395 41.5865C6.55474 44.6238 7.77176 47.5257 9.42722 50.184L6.92004 55.7675L13.5753 62.3503L19.2222 59.8697C21.9094 61.5062 24.8417 62.7102 27.9119 63.4329L30.1299 69.1326H39.5416L41.7589 63.4343C42.2863 63.3102 42.8094 63.172 43.328 63.0196C43.4834 61.9476 44.2113 61.0272 45.2546 60.6302L47.0897 59.9315C47.4177 58.927 47.8273 57.9498 48.3141 57.0103L47.5154 55.2311C47.0044 54.0929 47.2568 52.7486 48.1472 51.8677L51.7776 48.2766C52.6679 47.3959 54.0271 47.1462 55.178 47.6517L56.977 48.4419C57.9267 47.9606 58.9146 47.5553 59.93 47.2308L60.6366 45.4152C61.0709 44.2992 62.1238 43.548 63.3205 43.4834C63.5168 42.8578 63.6921 42.2251 63.8458 41.5865L69.6082 39.3925V30.0832L63.8467 27.8901ZM34.8352 55.5639C23.2071 55.5639 13.7807 46.2399 13.7807 34.738C13.7807 23.2363 23.2071 13.9123 34.8352 13.9123C46.4633 13.9123 55.8897 23.2363 55.8897 34.738C55.8897 46.2399 46.4633 55.5639 34.8352 55.5639Z" fill="url(#paint0_linear_402_3533)"/>
<defs>
<linearGradient id="paint0_linear_402_3533" x1="0.062988" y1="18.9655" x2="90.8905" y2="29.9725" gradientUnits="userSpaceOnUse">
<stop stop-color="#F1592A"/>
<stop offset="1" stop-color="#FBC54E"/>
</linearGradient>
</defs>
</svg>
