<svg width="17" height="17" viewBox="0 0 17 17" fill="none" xmlns="http://www.w3.org/2000/svg">
<g clip-path="url(#clip0_546_6926)">
<path d="M9.73958 13.1042H1.23958C0.556042 13.1042 0 13.6602 0 14.3438V15.7604C0 16.444 0.556042 17 1.23958 17H9.73958C10.4231 17 10.9792 16.444 10.9792 15.7604V14.3438C10.9792 13.6602 10.4231 13.1042 9.73958 13.1042Z" fill="url(#paint0_linear_546_6926)"/>
<path d="M10.8678 6.69236C11.2135 6.27232 11.5025 5.84377 11.6569 5.45065C11.6619 5.45065 11.6668 5.45207 11.6711 5.45207C11.987 5.45207 12.3036 5.33165 12.5438 5.09082L13.041 4.59427C13.5227 4.11261 13.5227 3.3299 13.041 2.84823L10.5548 0.361982C10.0731 -0.119684 9.29039 -0.119684 8.80943 0.361982L8.31218 0.859232C8.06922 1.10219 7.94951 1.42165 7.95234 1.74111C7.71789 1.83532 7.51743 1.96069 7.40693 2.03082C6.93376 2.33115 6.37134 2.79865 5.8238 3.34761C5.27626 3.89444 4.80947 4.45615 4.50914 4.92861C4.43972 5.0384 4.31505 5.23815 4.22155 5.47119C3.90209 5.46907 3.58264 5.58807 3.33897 5.83102L2.84243 6.32898C2.60939 6.56202 2.48047 6.87157 2.48047 7.20165C2.48047 7.53173 2.60939 7.84127 2.84243 8.07432L5.32868 10.5606C5.56951 10.8014 5.88543 10.9218 6.20134 10.9218C6.51726 10.9218 6.83389 10.8014 7.07401 10.5606L7.57126 10.0633C7.81493 9.81965 7.93464 9.49806 7.93109 9.1779C8.16343 9.0844 8.36459 8.96327 8.47368 8.89386C8.68972 8.75644 8.92559 8.58077 9.16855 8.38244C10.9585 10.4671 13.5156 13.2784 13.9746 13.7381C14.3812 14.1447 14.9131 14.5244 15.4812 14.5244C15.8205 14.5244 16.174 14.3884 16.5203 14.0413C16.6478 13.9138 16.9453 13.6163 16.9935 13.1361C17.0459 12.6147 16.7846 12.0622 16.2172 11.4956C15.7638 11.0401 12.9588 8.48798 10.8678 6.69236ZM6.81972 9.31177L6.32247 9.80902C6.25518 9.8749 6.14609 9.8749 6.07951 9.80902L3.59326 7.32277C3.54934 7.27886 3.54297 7.22786 3.54297 7.20165C3.54297 7.17544 3.54934 7.12444 3.59326 7.07982L4.09051 6.58257C4.1238 6.54927 4.16843 6.53227 4.21234 6.53227C4.25626 6.53227 4.30089 6.54927 4.33418 6.58257L6.82043 9.06882C6.88701 9.1354 6.88701 9.24519 6.81972 9.31177ZM9.06301 1.85302C8.99643 1.78573 8.99643 1.67736 9.06301 1.61007L9.56026 1.11282C9.59355 1.07952 9.63747 1.06252 9.68209 1.06252C9.72601 1.06252 9.77064 1.07952 9.80393 1.11282L12.2902 3.59907C12.3575 3.66636 12.3575 3.77544 12.2902 3.84273L11.7929 4.33927C11.7256 4.40586 11.6166 4.40586 11.5493 4.33927L9.06301 1.85302Z" fill="url(#paint1_linear_546_6926)"/>
</g>
<defs>
<linearGradient id="paint0_linear_546_6926" x1="3.1903e-08" y1="13.9546" x2="16.9916" y2="19.3559" gradientUnits="userSpaceOnUse">
<stop stop-color="#F1592A"/>
<stop offset="1" stop-color="#FBC54E"/>
</linearGradient>
<linearGradient id="paint1_linear_546_6926" x1="2.48047" y1="3.17092" x2="26.9114" y2="5.9259" gradientUnits="userSpaceOnUse">
<stop stop-color="#F1592A"/>
<stop offset="1" stop-color="#FBC54E"/>
</linearGradient>
<clipPath id="clip0_546_6926">
<rect width="17" height="17" fill="white"/>
</clipPath>
</defs>
</svg>
