<svg width="40" height="40" viewBox="0 0 40 40" fill="none" xmlns="http://www.w3.org/2000/svg">
<g clip-path="url(#clip0_329_2936)">
<path d="M17.2046 15.6486C17.2046 17.7661 15.4815 19.4893 13.3639 19.4893C11.2456 19.4893 9.52246 17.7661 9.52246 15.6486C9.52246 13.5302 11.2456 11.8079 13.3639 11.8079C15.4815 11.8079 17.2046 13.5302 17.2046 15.6486Z" fill="white"/>
<path d="M33.5123 8.03751C27.0136 5.26853 19.3189 2.8697 12.2593 4.10157C8.76539 4.71009 4.98719 6.49798 2.55016 9.37712C0.0905485 12.2792 -0.699998 15.8229 0.663752 19.4682C2.2543 23.7158 6.89781 27.6978 11.8155 28.0776C16.1632 28.4134 19.4579 24.9133 23.4571 23.6019C25.852 22.8169 28.3077 22.8411 30.7011 22.2365C32.9859 21.6584 36.4305 20.2861 38.4247 18.0943C39.2636 17.1718 39.8463 16.1049 39.9775 14.891C40.3502 11.4353 35.9955 9.09595 33.5123 8.03751ZM13.3638 21.8326C9.95344 21.8326 7.17899 19.0581 7.17899 15.6486C7.17899 12.2383 9.95344 9.46462 13.3638 9.46462C16.7733 9.46462 19.5477 12.2383 19.5477 15.6486C19.5477 19.0581 16.7733 21.8326 13.3638 21.8326Z" fill="white"/>
<path d="M39.9725 19.8689V21.8529C39.9725 21.8919 39.9701 21.9318 39.9662 21.9708C39.521 26.356 34.5211 29.2133 30.375 30.3271C29.3206 30.6106 28.27 30.7622 27.2529 30.9091C23.8855 31.3966 23.115 31.66 19.8825 33.6054C17.4986 35.0397 15.143 36.4417 12.2011 36.2034C10.2468 36.0432 8.25254 35.3066 6.4334 34.0748C4.73605 32.9251 3.22387 31.3723 2.05996 29.5843C0.839883 27.7096 0.113477 25.5077 0.0142578 23.3839C0.0134766 23.3651 0.0126953 23.3472 0.0126953 23.3284V23.2589L0.0525391 23.3175C1.37652 25.2312 3.09496 26.8926 5.0227 28.1221C7.50629 29.7054 10.1789 30.4435 12.4002 30.4435C15.5121 30.4435 18.1022 28.9766 20.3878 27.6816C21.6977 26.9403 22.9342 26.2396 24.1871 25.8287C26.3057 25.1337 28.7286 25.1518 31.2756 24.5079C32.6121 24.1697 37.1182 22.8519 39.9725 19.8689Z" fill="white"/>
</g>
<defs>
<clipPath id="clip0_329_2936">
<rect width="40" height="40" fill="white"/>
</clipPath>
</defs>
</svg>
