<svg width="32" height="31" viewBox="0 0 32 31" fill="none" xmlns="http://www.w3.org/2000/svg">
<g clip-path="url(#clip0_496_1596)">
<path d="M5.85463 31.0002H3.03645C2.41388 31.0002 1.90918 30.4955 1.90918 29.8729V18.6002C1.90918 17.9776 2.41388 17.4729 3.03645 17.4729H5.85463C6.47721 17.4729 6.98191 17.9776 6.98191 18.6002V29.8729C6.98191 30.4955 6.47721 31.0002 5.85463 31.0002ZM26.942 23.9057C26.7314 24.1181 26.4446 24.2373 26.1455 24.2366H22.2001C21.8888 24.2366 21.6365 24.4889 21.6365 24.8002C21.6365 25.1115 21.8888 25.3638 22.2001 25.3638H25.0183C25.6408 25.3638 26.1455 25.8685 26.1455 26.4911C26.1455 27.1137 25.6408 27.6184 25.0183 27.6184H22.2001C21.8888 27.6184 21.6365 27.8707 21.6365 28.182C21.6365 28.4933 21.8888 28.7457 22.2001 28.7457H23.891C24.5136 28.7457 25.0183 29.2504 25.0183 29.8729C25.0183 30.4955 24.5136 31.0002 23.891 31.0002H13.7455C12.9568 31.014 12.1726 30.8778 11.4346 30.5989C11.149 30.4743 10.8723 30.33 10.6067 30.1672C10.3722 30.0308 10.1366 29.8955 9.89252 29.7788C9.33254 29.5154 8.72706 29.3623 8.10918 29.3279V19.1362C9.16818 19.0424 10.1889 18.6944 11.0846 18.1217C14.7539 15.7871 16.3349 13.3482 15.7837 10.8716C15.5289 9.73139 15.6433 9.26583 16.256 8.95527C17.2502 8.44799 18.0771 9.29345 18.4079 9.87118C20.0927 12.8212 17.049 17.6837 17.018 17.7328C16.9069 17.9064 16.8994 18.1269 16.9986 18.3076C17.0977 18.4883 17.2876 18.6006 17.4937 18.6002H25.5819C26.2045 18.6002 26.7092 19.1049 26.7092 19.7275C26.7092 20.3501 26.2045 20.8548 25.5819 20.8548H22.2001C21.8888 20.8548 21.6365 21.1071 21.6365 21.4184C21.6365 21.7297 21.8888 21.982 22.2001 21.982H26.1455C26.6011 21.9826 27.0115 22.2572 27.1857 22.6781C27.36 23.099 27.2638 23.5833 26.942 23.9057Z" fill="white"/>
<path d="M27.2726 12.4001C26.9613 12.4001 26.709 12.1477 26.709 11.8364V10.7091C26.709 10.3979 26.9613 10.1455 27.2726 10.1455C27.5839 10.1455 27.8363 10.3979 27.8363 10.7091V11.8364C27.8363 12.1477 27.5839 12.4001 27.2726 12.4001Z" fill="white"/>
<path d="M27.2726 15.7819C26.9613 15.7819 26.709 15.5295 26.709 15.2183V14.091C26.709 13.7797 26.9613 13.5273 27.2726 13.5273C27.5839 13.5273 27.8363 13.7797 27.8363 14.091V15.2183C27.8363 15.5295 27.5839 15.7819 27.2726 15.7819Z" fill="white"/>
<path d="M29.5273 13.5274H28.4001C28.0888 13.5274 27.8364 13.2751 27.8364 12.9638C27.8364 12.6525 28.0888 12.4001 28.4001 12.4001H29.5273C29.8386 12.4001 30.091 12.6525 30.091 12.9638C30.091 13.2751 29.8386 13.5274 29.5273 13.5274Z" fill="white"/>
<path d="M26.1455 13.5274H25.0182C24.7069 13.5274 24.4546 13.2751 24.4546 12.9638C24.4546 12.6525 24.7069 12.4001 25.0182 12.4001H26.1455C26.4568 12.4001 26.7091 12.6525 26.7091 12.9638C26.7091 13.2751 26.4568 13.5274 26.1455 13.5274Z" fill="white"/>
<path d="M14.3091 4.50921C14.1596 4.50918 14.0163 4.44977 13.9106 4.34406L13.0652 3.49861C12.9186 3.35709 12.8599 3.14753 12.9115 2.95047C12.963 2.7534 13.1169 2.59951 13.314 2.54792C13.5111 2.49634 13.7206 2.55511 13.8621 2.70163L14.7076 3.54708C14.8687 3.70828 14.9169 3.95067 14.8297 4.16125C14.7425 4.37183 14.537 4.50916 14.3091 4.50921Z" fill="white"/>
<path d="M11.7728 1.97288C11.6233 1.97285 11.48 1.91345 11.3743 1.80774L10.5288 0.962281C10.3152 0.741122 10.3183 0.389579 10.5357 0.172165C10.7531 -0.0452481 11.1046 -0.0483029 11.3258 0.1653L12.1713 1.01075C12.3324 1.17195 12.3806 1.41434 12.2934 1.62492C12.2062 1.83551 12.0007 1.97283 11.7728 1.97288Z" fill="white"/>
<path d="M10.9273 4.50921C10.6994 4.50916 10.4939 4.37183 10.4067 4.16125C10.3195 3.95067 10.3677 3.70828 10.5288 3.54708L11.3743 2.70163C11.5158 2.55511 11.7253 2.49634 11.9224 2.54792C12.1195 2.59951 12.2734 2.7534 12.3249 2.95047C12.3765 3.14753 12.3178 3.35709 12.1712 3.49861L11.3258 4.34406C11.2201 4.44977 11.0768 4.50918 10.9273 4.50921Z" fill="white"/>
<path d="M13.4639 1.97283C13.236 1.97278 13.0305 1.83546 12.9433 1.62487C12.8561 1.41429 12.9043 1.1719 13.0654 1.0107L13.9109 0.16525C14.0524 0.0187286 14.262 -0.0400339 14.459 0.0115475C14.6561 0.063129 14.81 0.217027 14.8616 0.414091C14.9132 0.611155 14.8544 0.820717 14.7079 0.962231L13.8624 1.80769C13.7567 1.9134 13.6134 1.9728 13.4639 1.97283Z" fill="white"/>
<path d="M25.8869 4.89751C24.6965 5.47951 23.7341 6.44185 23.1522 7.63228C23.0866 7.78879 22.9335 7.89065 22.7638 7.89065C22.5941 7.89065 22.441 7.78879 22.3755 7.63228C21.795 6.44073 20.8322 5.47794 19.6407 4.89751C19.4842 4.83196 19.3823 4.67885 19.3823 4.50917C19.3823 4.33948 19.4842 4.18638 19.6407 4.12082C20.8325 3.54072 21.7954 2.57783 22.3755 1.38606C22.441 1.22955 22.5941 1.12769 22.7638 1.12769C22.9335 1.12769 23.0866 1.22955 23.1522 1.38606C23.7341 2.57648 24.6965 3.53883 25.8869 4.12082C26.0434 4.18638 26.1453 4.33948 26.1453 4.50917C26.1453 4.67885 26.0434 4.83196 25.8869 4.89751Z" fill="white"/>
<path d="M9.62766 9.84067C8.834 10.2288 8.19239 10.8704 7.80429 11.664C7.7597 11.7673 7.65802 11.8341 7.54558 11.8341C7.43315 11.8341 7.33147 11.7673 7.28688 11.664C6.89982 10.8696 6.25791 10.2277 5.46351 9.84067C5.36029 9.79608 5.29346 9.6944 5.29346 9.58196C5.29346 9.46952 5.36029 9.36784 5.46351 9.32325C6.25791 8.93619 6.89982 8.29428 7.28688 7.49989C7.33147 7.39667 7.43315 7.32983 7.54558 7.32983C7.65802 7.32983 7.7597 7.39667 7.80429 7.49989C8.19256 8.29342 8.83413 8.93498 9.62766 9.32325C9.73088 9.36784 9.79771 9.46952 9.79771 9.58196C9.79771 9.6944 9.73088 9.79608 9.62766 9.84067Z" fill="white"/>
</g>
<defs>
<clipPath id="clip0_496_1596">
<rect width="31" height="31" fill="white" transform="translate(0.5)"/>
</clipPath>
</defs>
</svg>
