<svg width="32" height="31" viewBox="0 0 32 31" fill="none" xmlns="http://www.w3.org/2000/svg">
<path d="M7.76554 7.26564C7.76554 6.97824 7.85076 6.69729 8.01043 6.45832C8.1701 6.21936 8.39705 6.03311 8.66257 5.92312C8.9281 5.81314 9.22027 5.78436 9.50215 5.84043C9.78403 5.8965 10.043 6.0349 10.2462 6.23812C10.4494 6.44135 10.5878 6.70027 10.6439 6.98215C10.6999 7.26403 10.6712 7.5562 10.5612 7.82172C10.4512 8.08725 10.2649 8.3142 10.026 8.47387C9.78701 8.63354 9.50606 8.71876 9.21866 8.71876C8.8334 8.71834 8.46403 8.56511 8.19161 8.29269C7.91919 8.02026 7.76596 7.6509 7.76554 7.26564ZM4.85929 7.26564C4.85854 5.85611 5.33098 4.48713 6.20091 3.37807C7.07083 2.26902 8.28788 1.4841 9.65702 1.14909C11.0262 0.814087 12.4681 0.948391 13.7519 1.53048C15.0356 2.11257 16.0867 3.10875 16.7369 4.35939H26.1718C26.3002 4.35942 26.4234 4.41047 26.5142 4.50131L28.9361 6.92318C28.9811 6.96815 29.0168 7.02154 29.0411 7.0803C29.0655 7.13906 29.078 7.20204 29.078 7.26565C29.078 7.32926 29.0655 7.39224 29.0411 7.451C29.0168 7.50977 28.9811 7.56315 28.9361 7.60812L26.5142 10.03C26.4693 10.075 26.4159 10.1107 26.3571 10.135C26.2984 10.1594 26.2354 10.1719 26.1718 10.1719C26.1082 10.1719 26.0452 10.1594 25.9864 10.135C25.9277 10.1107 25.8743 10.075 25.8293 10.03L24.7187 8.91932L23.608 10.03C23.563 10.075 23.5096 10.1107 23.4509 10.135C23.3921 10.1594 23.3291 10.1719 23.2655 10.1719C23.2019 10.1719 23.1389 10.1594 23.0802 10.135C23.0214 10.1107 22.968 10.075 22.9231 10.03L21.8124 8.91932L20.7017 10.03C20.6109 10.1208 20.4877 10.1719 20.3593 10.1719H16.7369C16.0867 11.4225 15.0356 12.4187 13.7519 13.0008C12.4681 13.5829 11.0262 13.7172 9.65702 13.3822C8.28788 13.0472 7.07083 12.2623 6.20091 11.1532C5.33098 10.0441 4.85854 8.67517 4.85929 7.26564ZM6.79679 7.26564C6.79679 7.74464 6.93883 8.21288 7.20495 8.61116C7.47106 9.00943 7.84931 9.31985 8.29185 9.50316C8.73439 9.68646 9.22135 9.73443 9.69115 9.64098C10.1609 9.54753 10.5925 9.31687 10.9312 8.97816C11.2699 8.63946 11.5006 8.20792 11.594 7.73812C11.6874 7.26832 11.6395 6.78137 11.4562 6.33883C11.2729 5.89629 10.9625 5.51804 10.5642 5.25192C10.1659 4.9858 9.69766 4.84376 9.21866 4.84376C8.57657 4.84452 7.961 5.09992 7.50697 5.55395C7.05294 6.00797 6.79754 6.62355 6.79679 7.26564ZM5.20187 19.9182C4.92936 19.6457 4.55976 19.4926 4.17437 19.4926C3.78898 19.4926 3.41937 19.6457 3.14686 19.9182L1.61058 21.4544C1.51977 21.5453 1.46875 21.6685 1.46875 21.7969C1.46875 21.9253 1.51977 22.0485 1.61058 22.1394L9.36058 29.8894C9.40555 29.9344 9.45894 29.97 9.5177 29.9944C9.57646 30.0187 9.63944 30.0313 9.70305 30.0313C9.76666 30.0313 9.82964 30.0187 9.8884 29.9944C9.94716 29.97 10.0006 29.9344 10.0455 29.8894L11.5818 28.3531C11.8543 28.0806 12.0074 27.711 12.0074 27.3256C12.0074 26.9402 11.8543 26.5706 11.5818 26.2981L5.20187 19.9182ZM29.853 13.7563C29.6373 13.5409 29.3812 13.3702 29.0995 13.2538C28.8177 13.1375 28.5158 13.0778 28.211 13.0781C27.9083 13.0764 27.6082 13.1346 27.3281 13.2493C27.0479 13.364 26.7932 13.533 26.5787 13.7466L23.1299 16.9434C23.5342 17.5122 23.7509 18.1929 23.7499 18.8906C23.7489 19.7896 23.3914 20.6514 22.7557 21.2871C22.1201 21.9227 21.2582 22.2803 20.3593 22.2813H15.5155C15.3871 22.2813 15.2639 22.2302 15.173 22.1394C15.0822 22.0486 15.0312 21.9254 15.0312 21.7969C15.0312 21.6684 15.0822 21.5452 15.173 21.4544C15.2639 21.3635 15.3871 21.3125 15.5155 21.3125H20.3593C21.0016 21.3125 21.6176 21.0574 22.0718 20.6032C22.526 20.149 22.7812 19.533 22.7812 18.8906C22.7812 18.2483 22.526 17.6323 22.0718 17.1781C21.6176 16.7239 21.0016 16.4688 20.3593 16.4688H10.7396C10.0395 16.4665 9.34592 16.6031 8.69904 16.8709C8.05216 17.1386 7.46485 17.5321 6.97116 18.0285L5.82319 19.1764C5.8453 19.1946 5.86632 19.214 5.88616 19.2345L12.2654 25.6138C12.2859 25.6336 12.3053 25.6546 12.3235 25.6767L12.3865 25.6138C12.5212 25.4787 12.6813 25.3716 12.8575 25.2984C13.0337 25.2253 13.2226 25.1876 13.4133 25.1875H21.2748C22.117 25.1867 22.9471 24.9866 23.6972 24.6036C24.4473 24.2205 25.0961 23.6654 25.5905 22.9836L30.0758 16.7836C30.4065 16.3356 30.5658 15.784 30.5249 15.2287C30.484 14.6734 30.2457 14.1511 29.853 13.7563Z" fill="white"/>
</svg>
