<svg width="32" height="32" viewBox="0 0 32 32" fill="none" xmlns="http://www.w3.org/2000/svg">
<path fill-rule="evenodd" clip-rule="evenodd" d="M29.0745 11V27C29.0745 27.796 28.7587 28.559 28.1957 29.121C27.6327 29.684 26.8696 30 26.0736 30H10.0688C9.27284 30 8.50975 29.684 7.94673 29.121C7.3837 28.559 7.06791 27.796 7.06791 27V19.868C7.5552 19.955 8.05678 20 8.56836 20C13.2612 20 17.0709 16.191 17.0709 11.5C17.0709 6.809 13.2612 3 8.56836 3C8.30971 3 8.05391 3.012 7.8024 3.034C8.35257 2.401 9.16424 2 10.0688 2H20.0718V8C20.0718 8.796 20.3876 9.559 20.9506 10.121C21.5137 10.684 22.2767 11 23.0727 11H29.0745ZM13.0697 25V24C13.0697 23.448 12.621 23 12.0694 23C11.5178 23 11.0691 23.448 11.0691 24V25C11.0691 25.552 11.5178 26 12.0694 26C12.621 26 13.0697 25.552 13.0697 25ZM17.0709 25V21C17.0709 20.448 16.6222 20 16.0706 20C15.519 20 15.0703 20.448 15.0703 21V25C15.0703 25.552 15.519 26 16.0706 26C16.6222 26 17.0709 25.552 17.0709 25ZM21.0721 25V22C21.0721 21.448 20.6234 21 20.0718 21C19.5202 21 19.0715 21.448 19.0715 22V25C19.0715 25.552 19.5202 26 20.0718 26C20.6234 26 21.0721 25.552 21.0721 25ZM25.0733 25V18C25.0733 17.448 24.6246 17 24.073 17C23.5214 17 23.0727 17.448 23.0727 18V25C23.0727 25.552 23.5214 26 24.073 26C24.6246 26 25.0733 25.552 25.0733 25ZM22.0724 2.019C22.7912 2.101 23.4614 2.441 23.953 2.982L28.2943 7.755C28.6187 8.113 28.8501 8.54 28.973 9H23.0727C22.8069 9 22.5526 8.895 22.3654 8.707C22.1782 8.52 22.0724 8.265 22.0724 8V2.019ZM14.9931 12.5C14.5116 15.613 11.8165 18 8.56836 18C4.98014 18 2.06641 15.087 2.06641 11.5C2.06641 8.253 4.45425 5.558 7.56804 5.077V10.5C7.56804 11.605 8.46404 12.5 9.56866 12.5H14.9931ZM9.56866 5.077C12.3566 5.508 14.563 7.713 14.9931 10.5H9.56866V5.077Z" fill="url(#paint0_linear_626_4337)"/>
<defs>
<linearGradient id="paint0_linear_626_4337" x1="2.06641" y1="8.11177" x2="30.666" y2="11.433" gradientUnits="userSpaceOnUse">
<stop stop-color="#F1592A"/>
<stop offset="1" stop-color="#FBC54E"/>
</linearGradient>
</defs>
</svg>
