<svg width="31" height="31" viewBox="0 0 31 31" fill="none" xmlns="http://www.w3.org/2000/svg">
<path d="M26.3857 17.2924L18.9586 24.7194L16.8726 22.6334C17.5931 22.6598 18.3113 22.5369 18.9821 22.2724C19.6528 22.0078 20.2616 21.6074 20.7702 21.0963L25.4815 16.3882L26.3857 17.2924Z" fill="white"/>
<path d="M18.8228 7.42729C18.7593 7.42703 18.6973 7.40806 18.6446 7.37276C18.5918 7.33746 18.5506 7.2874 18.5262 7.22882C18.5017 7.17025 18.495 7.10576 18.507 7.04342C18.519 6.98109 18.5491 6.92366 18.5935 6.87833L19.8658 5.60604C19.8948 5.57223 19.9304 5.54478 19.9705 5.5254C20.0105 5.50601 20.0542 5.49512 20.0986 5.4934C20.1431 5.49169 20.1874 5.49918 20.2289 5.51542C20.2703 5.53165 20.308 5.55627 20.3394 5.58774C20.3709 5.61921 20.3955 5.65685 20.4118 5.69829C20.428 5.73973 20.4355 5.78407 20.4338 5.82854C20.432 5.87302 20.4212 5.91665 20.4018 5.95672C20.3824 5.99678 20.3549 6.0324 20.3211 6.06135L19.0521 7.34656C18.9891 7.4023 18.9068 7.43127 18.8228 7.42729Z" fill="white"/>
<path d="M20.2791 10.9793C20.215 10.9797 20.1522 10.961 20.0988 10.9255C20.0453 10.8901 20.0036 10.8395 19.979 10.7803C19.9544 10.721 19.948 10.6558 19.9607 10.5929C19.9733 10.53 20.0043 10.4723 20.0499 10.4272L21.3125 9.16455C21.3426 9.13444 21.3783 9.11056 21.4177 9.09426C21.457 9.07797 21.4992 9.06958 21.5417 9.06958C21.5843 9.06958 21.6265 9.07797 21.6658 9.09426C21.7052 9.11056 21.7409 9.13444 21.771 9.16455C21.8011 9.19465 21.825 9.2304 21.8413 9.26974C21.8576 9.30908 21.866 9.35124 21.866 9.39382C21.866 9.4364 21.8576 9.47856 21.8413 9.5179C21.825 9.55724 21.8011 9.59298 21.771 9.62309L20.4987 10.8954C20.4387 10.95 20.3603 10.9799 20.2791 10.9793Z" fill="white"/>
<path d="M21.6355 14.6412C21.5717 14.6409 21.5093 14.6217 21.4564 14.586C21.4034 14.5503 21.3622 14.4997 21.338 14.4406C21.3138 14.3815 21.3077 14.3166 21.3204 14.254C21.3332 14.1914 21.3641 14.134 21.4095 14.089L22.6785 12.8167C22.7086 12.7864 22.7443 12.7624 22.7836 12.746C22.823 12.7296 22.8652 12.7212 22.9078 12.7212C22.9504 12.7212 22.9927 12.7296 23.032 12.746C23.0714 12.7624 23.1071 12.7864 23.1371 12.8167C23.1972 12.8772 23.231 12.9591 23.231 13.0444C23.231 13.1297 23.1972 13.2115 23.1371 13.272L21.8616 14.5314C21.8331 14.5639 21.7985 14.5903 21.7597 14.6092C21.7208 14.628 21.6786 14.6389 21.6355 14.6412Z" fill="white"/>
<path d="M25.3524 15.6035L20.3213 20.6313C19.8239 21.133 19.2178 21.5137 18.5498 21.7438C17.8818 21.9739 17.1698 22.0474 16.4689 21.9585L15.5615 21.839C15.1699 21.7882 14.7718 21.8278 14.3978 21.9549C14.0239 22.082 13.684 22.2931 13.4044 22.572L12.0482 23.9283C12.0191 23.896 4.54683 16.4075 4.521 16.4075L4.5436 16.3849C4.88556 16.7108 5.31555 16.9292 5.78037 17.0132C6.24518 17.0972 6.72442 17.043 7.15879 16.8575C7.59315 16.6719 7.96358 16.3631 8.22423 15.9691C8.48487 15.5752 8.62431 15.1135 8.62527 14.6412C8.62688 14.61 8.62688 14.5787 8.62527 14.5475C8.65532 14.5507 8.68563 14.5507 8.71568 14.5475C9.04065 14.5473 9.36223 14.4816 9.66118 14.3542C9.96013 14.2268 10.2303 14.0404 10.4555 13.8061C10.6807 13.5719 10.8564 13.2946 10.9719 12.9908C11.0874 12.6871 11.1405 12.3632 11.1279 12.0385C11.1579 12.0417 11.1882 12.0417 11.2183 12.0385C11.5437 12.0388 11.8657 11.9732 12.1651 11.8458C12.4645 11.7183 12.735 11.5317 12.9604 11.2969C13.1857 11.0622 13.3612 10.7844 13.4764 10.4801C13.5916 10.1757 13.644 9.85128 13.6305 9.52619C13.6605 9.52939 13.6908 9.52939 13.7209 9.52619C14.1932 9.5261 14.6552 9.38733 15.0494 9.12709C15.4436 8.86686 15.7527 8.49662 15.9384 8.0623C16.1241 7.62798 16.1782 7.14869 16.094 6.68391C16.0098 6.21913 15.7909 5.7893 15.4646 5.44775L18.0835 2.84504C18.2582 2.67046 18.4675 2.53438 18.6979 2.44556C18.9284 2.35673 19.1749 2.31713 19.4215 2.3293C19.6682 2.34146 19.9096 2.40513 20.1302 2.5162C20.3508 2.62727 20.5457 2.78328 20.7024 2.97421C20.9777 3.32905 21.1126 3.77302 21.081 4.22109C21.0494 4.66916 20.8537 5.08983 20.5312 5.40254L20.0953 5.84494C20.2705 5.67074 20.4801 5.53501 20.7108 5.44644C20.9414 5.35787 21.188 5.3184 21.4348 5.33056C21.6816 5.34272 21.9231 5.40623 22.144 5.51704C22.3648 5.62785 22.5601 5.78352 22.7174 5.9741C22.9905 6.32886 23.1237 6.77167 23.0916 7.21826C23.0594 7.66485 22.8642 8.08402 22.543 8.39598L21.5516 9.38733C21.7261 9.21229 21.9353 9.07581 22.1658 8.9867C22.3963 8.89759 22.6429 8.85783 22.8897 8.87001C23.1366 8.88218 23.3781 8.94601 23.5987 9.05737C23.8193 9.16873 24.0141 9.32514 24.1705 9.5165C24.4475 9.8713 24.5833 10.3161 24.5517 10.7651C24.5201 11.2141 24.3233 11.6356 23.9993 11.9481L22.9079 13.0395C23.0828 12.8659 23.2919 12.7307 23.522 12.6425C23.7521 12.5543 23.9981 12.515 24.2442 12.5271C24.4903 12.5393 24.7312 12.6026 24.9515 12.7131C25.1717 12.8235 25.3666 12.9787 25.5235 13.1687C25.8007 13.524 25.9366 13.9694 25.905 14.4189C25.8734 14.8685 25.6766 15.2904 25.3524 15.6035Z" fill="white"/>
<path d="M11.5742 24.3623L4.08137 16.8695C3.85063 16.6387 3.47652 16.6387 3.24578 16.8695L0.492457 19.6228C0.261716 19.8535 0.261718 20.2276 0.492458 20.4584L7.98533 27.9512C8.21607 28.182 8.59018 28.182 8.82092 27.9512L11.5742 25.1979C11.805 24.9672 11.805 24.5931 11.5742 24.3623Z" fill="white"/>
<path d="M30.5092 20.4245L27.7708 17.6733C27.7162 17.6179 27.6511 17.574 27.5793 17.544C27.5075 17.514 27.4305 17.4985 27.3527 17.4985C27.2749 17.4985 27.1978 17.514 27.1261 17.544C27.0543 17.574 26.9892 17.6179 26.9345 17.6733L19.4428 25.165C19.3875 25.2196 19.3435 25.2847 19.3135 25.3565C19.2835 25.4283 19.2681 25.5053 19.2681 25.5831C19.2681 25.6609 19.2835 25.738 19.3135 25.8097C19.3435 25.8815 19.3875 25.9466 19.4428 26.0013L22.1812 28.7396C22.2358 28.795 22.3009 28.839 22.3727 28.869C22.4445 28.899 22.5215 28.9144 22.5993 28.9144C22.6771 28.9144 22.7542 28.899 22.8259 28.869C22.8977 28.839 22.9628 28.795 23.0175 28.7396L30.5092 21.248C30.6171 21.1381 30.6775 20.9903 30.6775 20.8363C30.6775 20.6823 30.6171 20.5344 30.5092 20.4245ZM22.7559 26.4792C22.549 26.4792 22.3467 26.4179 22.1747 26.3029C22.0026 26.1879 21.8685 26.0245 21.7893 25.8334C21.7102 25.6422 21.6894 25.4318 21.7298 25.2289C21.7702 25.0259 21.8698 24.8395 22.0161 24.6932C22.1625 24.5468 22.3489 24.4472 22.5518 24.4068C22.7548 24.3665 22.9652 24.3872 23.1563 24.4664C23.3475 24.5456 23.5109 24.6797 23.6259 24.8517C23.7408 25.0238 23.8022 25.2261 23.8022 25.433C23.8022 25.7105 23.692 25.9766 23.4958 26.1728C23.2995 26.369 23.0334 26.4792 22.7559 26.4792Z" fill="white"/>
<path d="M14.977 8.39593C14.8127 8.56026 14.6176 8.69061 14.4029 8.77954C14.1882 8.86848 13.9581 8.91425 13.7257 8.91425C13.4933 8.91425 13.2632 8.86848 13.0485 8.77954C12.8338 8.69061 12.6387 8.56026 12.4744 8.39593L9.18389 5.0925C9.0202 4.92754 8.89061 4.73195 8.80251 4.51691C8.71441 4.30187 8.66952 4.07158 8.67042 3.83919C8.67224 3.36986 8.86042 2.92047 9.19357 2.58989C9.52672 2.25931 9.97755 2.07461 10.4469 2.07643C10.9162 2.07825 11.3656 2.26643 11.6962 2.59958C11.682 2.61744 11.6701 2.63696 11.6607 2.6577C11.5131 2.95819 11.4649 3.29778 11.5229 3.62746C11.581 3.95714 11.7423 4.25985 11.9836 4.49187L13.0137 5.52843C13.2968 5.81002 13.6469 6.01497 14.031 6.12399C14.4151 6.23302 14.8207 6.24254 15.2095 6.15166C15.4374 6.49455 15.5388 6.90605 15.4964 7.31556C15.454 7.72507 15.2703 8.10704 14.977 8.39593Z" fill="white"/>
<path d="M12.4744 10.8857C12.3105 11.0508 12.1155 11.1818 11.9008 11.2712C11.686 11.3607 11.4557 11.4067 11.2231 11.4067C10.9904 11.4067 10.7601 11.3607 10.5453 11.2712C10.3306 11.1818 10.1356 11.0508 9.97175 10.8857C7.71133 8.62527 8.17956 9.09996 7.17206 8.086C6.86273 7.74654 6.69748 7.30011 6.71125 6.84106C6.72501 6.382 6.91671 5.94628 7.24583 5.62596C7.57495 5.30565 8.01571 5.12583 8.47497 5.12452C8.93423 5.1232 9.37601 5.30049 9.70696 5.61892L12.4744 8.396C12.8007 8.72814 12.9836 9.17518 12.9836 9.64084C12.9836 10.1065 12.8007 10.5535 12.4744 10.8857Z" fill="white"/>
<path d="M9.97172 13.3882C9.63931 13.7203 9.18867 13.9068 8.71881 13.9068C8.24895 13.9068 7.79831 13.7203 7.46589 13.3882L5.20548 11.1116C4.87532 10.7781 4.6912 10.327 4.69363 9.85767C4.69605 9.38834 4.88481 8.93919 5.21839 8.60904C5.55197 8.27889 6.00304 8.09477 6.47237 8.09719C6.9417 8.09961 7.39084 8.28838 7.721 8.62196L9.98141 10.8824C10.1456 11.0474 10.2756 11.2432 10.364 11.4585C10.4524 11.6739 10.4974 11.9045 10.4965 12.1373C10.4956 12.3701 10.4488 12.6004 10.3587 12.815C10.2687 13.0297 10.1372 13.2245 9.97172 13.3882Z" fill="white"/>
<path d="M7.4659 15.8909C7.30158 16.0552 7.1065 16.1855 6.8918 16.2745C6.6771 16.3634 6.44699 16.4092 6.2146 16.4092C5.98221 16.4092 5.7521 16.3634 5.5374 16.2745C5.3227 16.1855 5.12762 16.0552 4.9633 15.8909L3.99455 14.9221C3.66225 14.5902 3.4754 14.14 3.4751 13.6703C3.4748 13.2007 3.66107 12.7502 3.99293 12.4179C4.3248 12.0856 4.77507 11.8987 5.24471 11.8984C5.71434 11.8981 6.16486 12.0844 6.49715 12.4163L7.4659 13.385C7.63149 13.549 7.76293 13.7441 7.85264 13.9592C7.94235 14.1742 7.98854 14.4049 7.98854 14.6379C7.98854 14.871 7.94235 15.1017 7.85264 15.3167C7.76293 15.5318 7.63149 15.7269 7.4659 15.8909Z" fill="white"/>
<path d="M17.1404 2.88366L14.4667 5.55418C14.0849 5.51099 13.7288 5.34034 13.4559 5.06981L12.4291 4.03648C12.3067 3.90011 12.2256 3.73184 12.195 3.55121C12.1644 3.37057 12.1857 3.18496 12.2563 3.01593C12.327 2.8469 12.4441 2.70136 12.5942 2.59622C12.7442 2.49107 12.921 2.43063 13.104 2.42189H16.3331C16.4973 2.41634 16.6598 2.4566 16.8023 2.53815C16.9449 2.61971 17.062 2.73934 17.1404 2.88366Z" fill="white"/>
</svg>
