<svg width="93" height="94" viewBox="0 0 93 94" fill="none" xmlns="http://www.w3.org/2000/svg">
<path fill-rule="evenodd" clip-rule="evenodd" d="M29.4349 73.4943L26.6118 78.3823C25.8967 79.6229 24.3041 80.0492 23.0662 79.3341C21.8312 78.6219 21.4024 77.0212 22.1155 75.7866L24.9376 70.898C25.6538 69.6574 27.2454 69.231 28.486 69.9471C29.7239 70.664 30.152 72.2539 29.4349 73.4945V73.4943ZM35.2882 73.8749C34.8812 73.6402 34.4354 73.5283 33.9946 73.5283C33.0969 73.5283 32.2223 73.994 31.7428 74.8258L27.1658 82.7522C26.4498 83.991 26.879 85.5838 28.1165 86.2996C29.3553 87.0157 30.9468 86.5894 31.6621 85.3489L36.2391 77.4225C36.9542 76.1819 36.5279 74.5922 35.2884 73.8751L35.2882 73.8749ZM17.158 41.5367C17.2628 41.4482 17.2484 41.2964 17.1278 41.2304L12.2756 38.5311C11.9245 38.3376 11.5449 38.3679 11.2294 38.6146C4.05386 44.2744 0.0499551 54.2738 1.70852 62.389C1.77445 62.7176 1.95646 62.9397 2.26506 63.0702L6.07207 64.6866C6.19958 64.74 6.33054 64.6564 6.33054 64.5169C6.42409 55.3673 10.1677 47.4218 17.158 41.5363V41.5367ZM43.298 79.3817C43.1175 78.7078 42.6892 78.1485 42.0923 77.8019C41.6853 77.5682 41.2379 77.4563 40.7987 77.4563C39.901 77.4563 39.0264 77.922 38.5449 78.7536L34.7299 85.3629C34.0692 86.5928 34.5023 88.1391 35.72 88.8412C36.3169 89.1859 37.0156 89.2767 37.6886 89.096C38.3616 88.9153 38.9209 88.4871 39.2674 87.8903L43.0432 81.3503C43.388 80.7525 43.4788 80.0546 43.298 79.3817ZM70.9922 68.7513L58.818 61.7208C56.4407 60.3459 54.2226 59.0545 51.3831 59.0545C48.8452 59.0692 46.5492 60.1913 44.3278 61.2779C40.8234 62.9897 36.8516 64.9298 32.5642 61.3805C31.3466 60.3701 30.6508 58.8601 30.7452 57.4335C30.8331 56.1251 31.5575 54.9817 32.787 54.2152L42.7925 47.9789C39.8721 46.5267 37.1837 46.759 34.1486 47.0233C30.1409 47.369 25.5977 47.7651 19.7298 44.4643L18.5853 43.8197C12.4506 49.1074 9.22862 55.8832 9.00538 63.9715L18.6854 68.9633C18.8229 69.0331 18.9457 69.1266 19.0503 69.2392L21.3757 71.7406L22.6324 69.5656C24.0821 67.0552 27.3039 66.1915 29.817 67.6411C31.1684 68.4213 32.042 69.7149 32.3353 71.135C33.7114 70.6793 35.2681 70.7892 36.6193 71.5691C37.9714 72.3491 38.8458 73.6429 39.1394 75.0628C40.5159 74.6072 42.0729 74.7171 43.4236 75.4971C44.6375 76.1977 45.5048 77.3326 45.8697 78.6914C45.8966 78.7913 45.9202 78.8912 45.9411 78.9915C47.3176 78.5354 48.8755 78.6451 50.2276 79.4249C51.2274 80.0027 51.9937 80.8762 52.4364 81.9279L58.3045 85.3141C59.4443 85.9747 60.9245 85.5789 61.5824 84.4375C62.2268 83.318 61.8603 81.8658 60.7577 81.1915L53.5733 77.0421C52.937 76.6745 52.7179 75.8611 53.0845 75.2239C53.4539 74.5858 54.2682 74.3693 54.9054 74.736C57.6825 76.3396 60.4598 77.9433 63.2371 79.5468C64.4979 80.2757 66.117 79.8419 66.845 78.5805C67.5632 77.3377 67.14 75.7216 65.9069 74.9887L58.8545 70.9181C58.2191 70.5496 57.9999 69.7353 58.3675 69.0981C58.736 68.4607 59.5503 68.2435 60.1857 68.6113C62.9281 70.1945 65.6705 71.7776 68.4129 73.3606C69.6684 74.0852 71.2952 73.6502 72.02 72.3943C72.8246 71.0026 72.1978 69.6316 70.9922 68.7515V68.7513ZM81.771 38.6146C81.5912 38.476 81.3941 38.4037 81.1906 38.4037C81.0339 38.4037 80.8762 38.4477 80.724 38.5311L75.87 41.2304C75.8032 41.268 75.7821 41.2993 75.7747 41.3772C75.7674 41.4533 75.7819 41.4871 75.8417 41.5367C82.8319 47.422 86.5756 55.3677 86.6691 64.5173C86.6691 64.6568 86.8001 64.7403 86.9276 64.6869L90.7335 63.0705C91.0416 62.9403 91.223 62.7167 91.291 62.3894C92.9497 54.2742 88.9456 44.2745 81.771 38.6146ZM74.3846 43.7952L72.0025 45.1208C68.0727 47.3067 63.6919 47.7017 59.3342 46.2659C55.476 44.9951 51.4306 45.7313 46.9599 48.5177L34.196 56.4753C33.6918 56.7908 33.4331 57.1612 33.403 57.6122C33.3627 58.1908 33.7018 58.8637 34.262 59.3285C37.0897 61.6703 39.3699 60.7359 43.1576 58.8848C45.5313 57.7241 48.2234 56.4101 51.3654 56.3909C54.7973 56.3909 57.2786 57.7543 60.1518 59.4157L72.3847 66.4803C73.0036 66.8274 73.8195 67.6768 74.2015 68.2851L83.9879 63.7579C83.714 55.7513 80.4846 49.0401 74.3846 43.7952ZM54.7963 86.365L52.7225 85.1677C52.6068 85.6679 52.4164 86.1531 52.153 86.6095L50.7439 89.0508L51.856 89.6763C53.8043 90.8003 55.0753 90.1898 55.6189 89.2482C56.1133 88.3911 56.0599 87.1335 54.7964 86.365H54.7963ZM48.8962 81.7308C47.6592 81.0235 46.0704 81.4338 45.3488 82.6817L42.5257 87.5724C41.8111 88.8099 42.2394 90.4042 43.4764 91.1189C44.717 91.834 46.3067 91.4077 47.0229 90.1689L49.8451 85.2783C50.5619 84.0435 50.1283 82.4463 48.8962 81.7308ZM27.4466 21.588C27.4466 11.0654 35.9772 2.53479 46.4998 2.53479C57.0224 2.53479 65.553 11.0654 65.553 21.588C65.553 32.1106 57.0226 40.6412 46.4998 40.6412C35.977 40.6412 27.4466 32.1108 27.4466 21.588ZM35.3327 21.677L39.7851 29.3887C40.2307 30.1605 40.9416 30.6355 41.8253 30.7519C42.7088 30.8682 43.5187 30.5934 44.1487 29.9633L57.2524 16.8595C58.2696 15.8425 58.2696 14.178 57.2524 13.1609C56.2354 12.1439 54.571 12.1439 53.5538 13.1609L42.7141 24.0007L39.8627 19.0619C39.1445 17.8179 37.534 17.3865 36.2902 18.1047C35.0445 18.8238 34.6136 20.4315 35.3329 21.6772L35.3327 21.677ZM73.9888 16.5442C74.356 12.8447 77.2825 9.9183 80.9819 9.55102C77.2825 9.18374 74.356 6.25733 73.9888 2.55786C73.6215 6.25733 70.6951 9.18374 66.9956 9.55102C70.6951 9.9183 73.6215 12.8447 73.9888 16.5442ZM17.9459 32.6524C18.2463 29.6256 20.6407 27.2312 23.6676 26.9308C20.6407 26.6303 18.2463 24.2359 17.9459 21.2091C17.6455 24.2359 15.2511 26.6303 12.2242 26.9308C15.2511 27.2312 17.6455 29.6256 17.9459 32.6524Z" fill="url(#paint0_linear_402_3556)"/>
<defs>
<linearGradient id="paint0_linear_402_3556" x1="1.33594" y1="21.9464" x2="96.8482" y2="33.626" gradientUnits="userSpaceOnUse">
<stop stop-color="#F1592A"/>
<stop offset="1" stop-color="#FBC54E"/>
</linearGradient>
</defs>
</svg>
